<svg version="1.2" xmlns="http://www.w3.org/2000/svg" viewBox="0 0 1053 139" width="1053" height="139">
	<title>logo</title>
	<style>
		.s0 { fill: #f84e25 } 
		.s1 { fill: #f6f6f6 } 
	</style>
	<path id="&lt;Path&gt;" class="s0" d="m36.2 126.8h-23.5c-7 0-12.7-5.7-12.7-12.7v-77h36.2z"/>
	<path id="&lt;Path&gt;" class="s0" d="m72.5 37.1v-28c0-4.7-3.8-8.5-8.5-8.5h-27.8v36.5z"/>
	<path id="&lt;Path&gt;" class="s0" d="m78.5 0.5h23.6c7 0 12.7 5.7 12.7 12.8v77.3h-36.3z"/>
	<path id="&lt;Path&gt;" class="s0" d="m42.2 90.6v27.7c0 4.7 3.8 8.5 8.5 8.5h27.8v-36.2z"/>
	<path id="&lt;Compound Path&gt;" class="s1" d="m158.6 110.5v-94.1h17.7v94.1z"/>
	<path id="&lt;Compound Path&gt;" class="s1" d="m298.5 110.5h-17.3v-37.8q0-8.1-2.7-11.9-2.8-3.7-7.7-3.7-5.1 0-9.6 3.9-4.5 4-6.5 10.3v39.2h-17.2v-37.8q0-8.1-2.8-11.9-2.8-3.7-7.6-3.7-5.1 0-9.6 3.9-4.6 3.8-6.5 10.1v39.4h-17.3v-67.4h15.6v12.5q3.7-6.6 10.2-10.1 6.5-3.6 14.9-3.6 8.5 0 13.1 4.1 4.6 4.2 5.9 10.2 4.2-6.9 10.5-10.6 6.3-3.7 14.4-3.7 6.2 0 10.1 2.3 4 2.4 6.2 6.1 2.2 3.7 3 8.5 0.9 4.7 0.9 9.6z"/>
	<path id="&lt;Compound Path&gt;" fill-rule="evenodd" class="s1" d="m354 111.8q-8 0-13.9-3.5-6-3.6-9.3-9.6v39.2h-17.3v-94.8h15.1v11.6q3.7-6 9.6-9.4 6-3.4 13.7-3.4 6.8 0 12.6 2.8 5.8 2.8 10 7.4 4.2 4.7 6.5 11.1 2.4 6.4 2.4 13.5 0 7.3-2.2 13.7-2.2 6.5-6.1 11.2-3.9 4.8-9.3 7.5-5.4 2.7-11.8 2.7zm-5.8-14.7q3.8 0 7.1-1.6 3.3-1.7 5.6-4.5 2.3-2.9 3.6-6.6 1.3-3.7 1.3-7.7 0-4.3-1.4-7.9-1.4-3.7-3.9-6.4-2.6-2.7-6-4.3-3.4-1.5-7.4-1.5-2.4 0-5 0.8-2.6 0.9-4.8 2.4-2.1 1.6-3.9 3.6-1.7 2.1-2.6 4.5v15.8q2.3 5.8 7.1 9.6 4.7 3.8 10.3 3.8z"/>
	<path id="&lt;Compound Path&gt;" class="s1" d="m415.7 111.8q-10.4 0-15.8-6.7-5.4-6.7-5.4-19.8v-42.2h17.2v38.5q0 15.5 11.2 15.5 5.1 0 9.8-3 4.6-3 7.6-9.2v-41.8h17.3v47.6q0 2.7 0.9 3.9 1 1.1 3.2 1.2v14.7q-2.6 0.5-4.3 0.7-1.8 0.1-3.2 0.1-4.6 0-7.5-2.1-2.9-2.2-3.4-5.9l-0.4-5.4q-4.5 7-11.6 10.4-7.1 3.5-15.6 3.5z"/>
	<path id="&lt;Compound Path&gt;" class="s1" d="m474.5 16.6h17.3v72.3q0 3.7 1.8 5.8 1.8 2 5.1 2 1.6 0 3.4-0.5 1.9-0.5 3.6-1.3l2.3 13.2q-3.5 1.6-8.1 2.5-4.6 0.9-8.4 0.9-8.1 0-12.5-4.3-4.5-4.3-4.5-12.3z"/>
	<path id="&lt;Compound Path&gt;" class="s1" d="m540.9 111.8q-8.4 0-16.6-2.7-8.1-2.7-13.9-7.7l6.5-10.8q6.2 4.3 12 6.6 5.9 2.2 11.7 2.2 5.1 0 8.1-1.9 2.9-1.9 2.9-5.5 0-3.6-3.4-5.3-3.5-1.7-11.4-3.9-6.5-1.8-11.2-3.4-4.6-1.7-7.4-3.8-2.9-2.2-4.1-4.9-1.3-2.8-1.3-6.6 0-5.2 2-9.3 2-4.1 5.6-7 3.6-2.9 8.4-4.5 4.8-1.5 10.5-1.5 7.6 0 14.2 2.2 6.6 2.2 12.2 7.1l-7 10.4q-5.1-3.9-10-5.7-4.8-1.8-9.6-1.8-4.3 0-7.3 1.8-2.9 1.8-2.9 5.8 0 1.8 0.7 3 0.7 1.1 2.2 2 1.6 0.9 4.1 1.8 2.5 0.8 6.2 1.7 7 1.8 11.9 3.6 5 1.8 8.1 4.1 3.2 2.3 4.7 5.4 1.4 3 1.4 7.2 0 9.9-7.3 15.7-7.3 5.7-20 5.7z"/>
	<path id="&lt;Compound Path&gt;" fill-rule="evenodd" class="s1" d="m610.6 111.8q-8.3 0-14.8-2.8-6.6-2.9-11.2-7.7-4.5-4.8-7-11.1-2.4-6.3-2.4-13.3 0-7.1 2.4-13.4 2.5-6.3 7-11.1 4.6-4.8 11.2-7.7 6.5-2.8 14.8-2.8 8.2 0 14.7 2.8 6.5 2.9 11.1 7.7 4.5 4.8 7 11.1 2.4 6.3 2.4 13.4 0 7-2.4 13.3-2.5 6.3-7 11.1-4.5 4.8-11 7.7-6.6 2.8-14.8 2.8zm-17.7-34.9q0 4.5 1.4 8.2 1.3 3.7 3.7 6.4 2.4 2.7 5.6 4.1 3.2 1.5 7 1.5 3.7 0 6.9-1.5 3.2-1.4 5.6-4.1 2.4-2.7 3.8-6.5 1.3-3.7 1.3-8.2 0-4.4-1.3-8.1-1.4-3.7-3.8-6.4-2.4-2.8-5.6-4.2-3.2-1.5-6.9-1.5-3.8 0-7 1.5-3.2 1.6-5.6 4.3-2.4 2.7-3.7 6.4-1.4 3.7-1.4 8.1z"/>
	<path id="&lt;Compound Path&gt;" fill-rule="evenodd" class="s0" d="m658.2 110.5v-91.4h33.2q11.2 0 19.6 3.6 8.5 3.6 14.1 9.8 5.7 6.2 8.5 14.5 2.8 8.3 2.8 17.7 0 10.4-3.1 18.9-3.2 8.4-9.1 14.4-5.9 5.9-14.2 9.2-8.3 3.3-18.6 3.3zm60.4-45.8q0-6.6-1.8-12.1-1.8-5.5-5.3-9.5-3.5-4-8.6-6.2-5.1-2.2-11.5-2.2h-15.4v60.2h15.4q6.6 0 11.7-2.3 5-2.3 8.4-6.3 3.5-4.1 5.3-9.6 1.8-5.6 1.8-12z"/>
	<path id="&lt;Compound Path&gt;" class="s0" d="m748.7 33.7v-17.1h17.2v17.1zm0 76.8v-67.4h17.3v67.4z"/>
	<path id="&lt;Compound Path&gt;" fill-rule="evenodd" class="s0" d="m807.9 110.9q-6.9 0-12.4-2.7-5.5-2.7-9.6-7.4-4-4.7-6.2-10.9-2.2-6.2-2.2-13.1 0-7.3 2.3-13.6 2.3-6.4 6.4-11.1 4.2-4.8 10-7.5 5.8-2.7 12.7-2.7 7.8 0 13.8 3.6 5.9 3.5 9.8 9.4v-11.8h15v64.2q0 7.5-2.8 13.4-2.9 5.9-7.8 10-5 4.1-11.8 6.3-6.9 2.2-15 2.2-11.1 0-18.6-3.7-7.6-3.6-13-10.3l9.4-9.2q3.9 4.8 9.7 7.5 5.9 2.7 12.5 2.7 3.9 0 7.6-1.1 3.7-1.1 6.5-3.4 2.8-2.3 4.5-5.9 1.6-3.6 1.6-8.5v-8.5q-3.4 5.8-9.4 8.9-6.1 3.2-13 3.2zm5.8-13.8q2.8 0 5.4-0.9 2.5-0.9 4.7-2.4 2.2-1.6 3.9-3.6 1.7-2.1 2.6-4.4v-16.1q-2.4-5.9-7.3-9.5-5-3.6-10.4-3.6-4 0-7.2 1.7-3.2 1.8-5.5 4.7-2.3 2.9-3.5 6.6-1.3 3.7-1.3 7.7 0 4.1 1.4 7.7 1.5 3.6 4 6.3 2.5 2.7 5.8 4.3 3.4 1.5 7.4 1.5z"/>
	<path id="&lt;Compound Path&gt;" class="s0" d="m863.1 33.7v-17.1h17.2v17.1zm0 76.8v-67.4h17.3v67.4z"/>
	<path id="&lt;Compound Path&gt;" class="s0" d="m936.3 107q-3.5 1.6-8.5 3.1-5 1.6-10.5 1.6-3.6 0-6.8-0.9-3.1-0.9-5.5-2.9-2.4-2-3.8-5.2-1.4-3.1-1.4-7.6v-38.8h-8.9v-13.2h8.9v-21.9h17.2v21.9h14.2v13.2h-14.2v33q0 3.6 1.9 5.1 1.8 1.4 4.5 1.4 2.7 0 5.3-0.9 2.6-0.9 4.1-1.5z"/>
	<path id="&lt;Compound Path&gt;" fill-rule="evenodd" class="s0" d="m963.7 111.8q-4.9 0-9.1-1.6-4.3-1.6-7.4-4.5-3-2.9-4.8-6.8-1.7-3.8-1.7-8.5 0-4.7 2.1-8.8 2.1-4 5.9-6.9 3.8-2.8 9.1-4.4 5.3-1.6 11.6-1.6 4.5 0 8.8 0.8 4.3 0.7 7.7 2.1v-3.8q0-6.7-3.8-10.3-3.8-3.6-11.3-3.6-5.4 0-10.6 1.9-5.1 1.9-10.5 5.7l-5.3-11q13-8.6 28.1-8.6 14.5 0 22.6 7.2 8 7.1 8 20.6v21q0 2.7 1 3.9 0.9 1.1 3.1 1.2v14.7q-4.4 0.9-7.6 0.9-4.9 0-7.5-2.2-2.6-2.2-3.3-5.8l-0.4-3.7q-4.5 5.9-10.9 9-6.4 3.1-13.8 3.1zm4.9-12.6q4.4 0 8.3-1.6 3.9-1.5 6.1-4.1 2.9-2.2 2.9-4.9v-7.7q-3.1-1.1-6.7-1.9-3.6-0.7-7-0.7-6.7 0-10.9 3.1-4.3 3-4.3 7.6 0 4.4 3.4 7.3 3.3 2.9 8.2 2.9z"/>
	<path id="&lt;Compound Path&gt;" class="s0" d="m1019.1 16.6h17.2v72.3q0 3.7 1.8 5.8 1.8 2 5.2 2 1.5 0 3.4-0.5 1.8-0.5 3.5-1.3l2.3 13.2q-3.4 1.6-8.1 2.5-4.6 0.9-8.3 0.9-8.2 0-12.6-4.3-4.4-4.3-4.4-12.3z"/>
</svg>